<svg width="56" height="38" viewBox="0 0 56 38" fill="none" xmlns="http://www.w3.org/2000/svg">
<path fill-rule="evenodd" clip-rule="evenodd" d="M23.5471 0.0660931C18.9919 0.437934 10.2701 1.64755 8.41928 2.16404C6.49971 2.69976 4.89196 4.17419 4.30766 5.93492C3.81133 7.42999 -0.00366999 28.8551 2.64994e-06 30.1259C0.0139937 34.9134 4.35418 38.6356 9.07511 37.9091C9.75192 37.8048 10.7937 37.465 11.5165 37.1126C12.5977 36.5854 13.0835 36.1742 14.9227 34.23L17.0677 31.9624H28.0067H38.9458L41.0908 34.23C42.9299 36.1742 43.4157 36.5854 44.4969 37.1126C49.9158 39.7548 56.0195 36.0028 56 30.0418C55.9938 28.1772 51.9962 6.49426 51.4433 5.32626C50.6061 3.55801 49.0501 2.43759 46.7858 1.9727C44.9075 1.58686 40.1215 0.877637 36.6637 0.472564C33.6386 0.118213 25.8608 -0.122801 23.5471 0.0660931ZM15.2808 12.5334C15.8205 13.0149 15.8569 13.1237 15.9395 14.5011L16.0269 15.9589L17.4846 16.0463C18.8618 16.1289 18.9706 16.1653 19.4521 16.705C20.157 17.4949 20.157 18.4456 19.4521 19.2355C18.9706 19.7753 18.8618 19.8116 17.4846 19.8942L16.0269 19.9816L15.9395 21.4394C15.8569 22.8168 15.8205 22.9256 15.2808 23.4071C14.8394 23.8011 14.5405 23.9169 13.9644 23.9169C12.5596 23.9169 11.917 23.013 11.917 21.0366V19.8942H10.5415C9.42733 19.8942 9.08088 19.8272 8.71781 19.5416C7.73809 18.771 7.73809 17.1696 8.71781 16.399C9.08088 16.1133 9.42733 16.0463 10.5415 16.0463H11.917V14.9039C11.917 12.9275 12.5596 12.0236 13.9644 12.0236C14.5405 12.0236 14.8394 12.1394 15.2808 12.5334ZM43.2816 12.3829C43.9525 12.9105 44.1999 13.886 43.8657 14.6856C43.2944 16.0532 41.7335 16.3418 40.6686 15.2768C40.1812 14.7893 40.074 14.5497 40.074 13.9475C40.074 13.3453 40.1812 13.1057 40.6686 12.6183C41.1672 12.1196 41.3891 12.0236 42.0441 12.0236C42.567 12.0236 42.9759 12.1424 43.2816 12.3829ZM39.2508 16.399C39.8854 16.8983 40.1555 17.8053 39.9 18.5796C39.6149 19.4435 38.971 19.8942 38.0217 19.8942C37.3667 19.8942 37.1448 19.7982 36.6462 19.2995C36.1588 18.8121 36.0516 18.5725 36.0516 17.9703C36.0516 17.3681 36.1588 17.1285 36.6462 16.641C37.1448 16.1424 37.3667 16.0463 38.0217 16.0463C38.5399 16.0463 38.9535 16.1649 39.2508 16.399ZM47.2956 16.399C47.9303 16.8983 48.2003 17.8053 47.9448 18.5796C47.6597 19.4435 47.0158 19.8942 46.0665 19.8942C45.4116 19.8942 45.1896 19.7982 44.691 19.2995C44.2036 18.8121 44.0964 18.5725 44.0964 17.9703C44.0964 17.3681 44.2036 17.1285 44.691 16.641C45.1896 16.1424 45.4116 16.0463 46.0665 16.0463C46.5847 16.0463 46.9983 16.1649 47.2956 16.399ZM43.4143 20.5223C43.9357 20.9941 44.1559 21.8952 43.9224 22.6024C43.6373 23.4662 42.9934 23.9169 42.0441 23.9169C41.3891 23.9169 41.1672 23.8209 40.6686 23.3223C40.1894 22.843 40.074 22.591 40.074 22.024C40.074 20.3348 42.1674 19.3936 43.4143 20.5223Z" fill="#1991EB"/>
</svg>
