<svg width="160" height="37" viewBox="0 0 160 37" fill="none" xmlns="http://www.w3.org/2000/svg">
<path d="M16.684 1.728V6.66H6.388V11.988H14.092V16.776H6.388V27H0.232V1.728H16.684ZM26.0755 10.26C26.7955 9.156 27.6955 8.292 28.7755 7.668C29.8555 7.02 31.0555 6.696 32.3755 6.696V13.212H30.6835C29.1475 13.212 27.9955 13.548 27.2275 14.22C26.4595 14.868 26.0755 16.02 26.0755 17.676V27H19.9195V6.912H26.0755V10.26ZM54.2539 16.632C54.2539 17.208 54.2179 17.808 54.1459 18.432H40.2139C40.3099 19.68 40.7059 20.64 41.4019 21.312C42.1219 21.96 42.9979 22.284 44.0299 22.284C45.5659 22.284 46.6339 21.636 47.2339 20.34H53.7859C53.4499 21.66 52.8379 22.848 51.9499 23.904C51.0859 24.96 49.9939 25.788 48.6739 26.388C47.3539 26.988 45.8779 27.288 44.2459 27.288C42.2779 27.288 40.5259 26.868 38.9899 26.028C37.4539 25.188 36.2539 23.988 35.3899 22.428C34.5259 20.868 34.0939 19.044 34.0939 16.956C34.0939 14.868 34.5139 13.044 35.3539 11.484C36.2179 9.924 37.4179 8.724 38.9539 7.884C40.4899 7.044 42.2539 6.624 44.2459 6.624C46.1899 6.624 47.9179 7.032 49.4299 7.848C50.9419 8.664 52.1179 9.828 52.9579 11.34C53.8219 12.852 54.2539 14.616 54.2539 16.632ZM47.9539 15.012C47.9539 13.956 47.5939 13.116 46.8739 12.492C46.1539 11.868 45.2539 11.556 44.1739 11.556C43.1419 11.556 42.2659 11.856 41.5459 12.456C40.8499 13.056 40.4179 13.908 40.2499 15.012H47.9539ZM76.4375 16.632C76.4375 17.208 76.4015 17.808 76.3295 18.432H62.3975C62.4935 19.68 62.8895 20.64 63.5855 21.312C64.3055 21.96 65.1815 22.284 66.2135 22.284C67.7495 22.284 68.8175 21.636 69.4175 20.34H75.9695C75.6335 21.66 75.0215 22.848 74.1335 23.904C73.2695 24.96 72.1775 25.788 70.8575 26.388C69.5375 26.988 68.0615 27.288 66.4295 27.288C64.4615 27.288 62.7095 26.868 61.1735 26.028C59.6375 25.188 58.4375 23.988 57.5735 22.428C56.7095 20.868 56.2775 19.044 56.2775 16.956C56.2775 14.868 56.6975 13.044 57.5375 11.484C58.4015 9.924 59.6015 8.724 61.1375 7.884C62.6735 7.044 64.4375 6.624 66.4295 6.624C68.3735 6.624 70.1015 7.032 71.6135 7.848C73.1255 8.664 74.3015 9.828 75.1415 11.34C76.0055 12.852 76.4375 14.616 76.4375 16.632ZM70.1375 15.012C70.1375 13.956 69.7775 13.116 69.0575 12.492C68.3375 11.868 67.4375 11.556 66.3575 11.556C65.3255 11.556 64.4495 11.856 63.7295 12.456C63.0335 13.056 62.6015 13.908 62.4335 15.012H70.1375Z" fill="white"/>
<path d="M99.5211 10.08C99.5211 11.616 99.1611 13.02 98.4411 14.292C97.7451 15.54 96.6771 16.548 95.2371 17.316C93.8211 18.06 92.0811 18.432 90.0171 18.432H86.5251V27H79.4691V1.62H90.0171C92.0571 1.62 93.7851 1.98 95.2011 2.7C96.6411 3.42 97.7211 4.416 98.4411 5.688C99.1611 6.96 99.5211 8.424 99.5211 10.08ZM89.3331 12.816C91.3251 12.816 92.3211 11.904 92.3211 10.08C92.3211 8.232 91.3251 7.308 89.3331 7.308H86.5251V12.816H89.3331ZM109.412 0.36V27H102.356V0.36H109.412ZM112.278 16.884C112.278 14.796 112.65 12.972 113.394 11.412C114.162 9.852 115.194 8.652 116.49 7.812C117.81 6.972 119.274 6.552 120.882 6.552C122.274 6.552 123.474 6.828 124.482 7.38C125.49 7.932 126.27 8.676 126.822 9.612V6.804H133.878V27H126.822V24.192C126.27 25.128 125.478 25.872 124.446 26.424C123.438 26.976 122.25 27.252 120.882 27.252C119.274 27.252 117.81 26.832 116.49 25.992C115.194 25.152 114.162 23.952 113.394 22.392C112.65 20.808 112.278 18.972 112.278 16.884ZM126.822 16.884C126.822 15.588 126.462 14.568 125.742 13.824C125.046 13.08 124.182 12.708 123.15 12.708C122.094 12.708 121.218 13.08 120.522 13.824C119.826 14.544 119.478 15.564 119.478 16.884C119.478 18.18 119.826 19.212 120.522 19.98C121.218 20.724 122.094 21.096 123.15 21.096C124.182 21.096 125.046 20.724 125.742 19.98C126.462 19.236 126.822 18.204 126.822 16.884ZM159.643 6.804L146.827 36.612H139.159L143.983 26.136L135.703 6.804H143.551L147.799 18.252L151.903 6.804H159.643Z" fill="#1991EB"/>
</svg>
